<svg width="183" height="71" viewBox="0 0 183 71" fill="none" xmlns="http://www.w3.org/2000/svg">
<path d="M18.6203 39.9154C18.0123 40.3954 17.0843 40.8114 15.8363 41.1634C14.5883 41.5154 13.3723 41.6914 12.1883 41.6914C10.2043 41.6914 8.42827 41.2594 6.86027 40.3954C5.29227 39.4994 4.06027 38.2674 3.16427 36.6994C2.26827 35.1314 1.82027 33.3554 1.82027 31.3714C1.82027 29.2914 2.25227 27.4994 3.11627 25.9954C4.01227 24.4914 5.24427 23.3394 6.81227 22.5394C8.38027 21.7074 10.2043 21.2914 12.2843 21.2914C13.1483 21.2914 14.0123 21.3714 14.8763 21.5314C15.7723 21.6914 16.5883 21.9474 17.3243 22.2994C17.7083 22.4914 17.9803 22.7474 18.1403 23.0674C18.3323 23.3554 18.4283 23.6754 18.4283 24.0274C18.4283 24.5394 18.2363 25.0194 17.8523 25.4674C17.5003 25.8834 17.0203 26.0914 16.4123 26.0914C16.1563 26.0914 15.8843 26.0434 15.5963 25.9474C15.0203 25.7234 14.3963 25.5474 13.7243 25.4194C13.0523 25.2594 12.4603 25.1794 11.9483 25.1794C10.2843 25.1794 8.89227 25.7394 7.77227 26.8594C6.68427 27.9794 6.14027 29.4834 6.14027 31.3714C6.14027 33.3874 6.70027 34.9714 7.82027 36.1234C8.97227 37.2754 10.4443 37.8514 12.2363 37.8514C12.9723 37.8514 13.7563 37.7234 14.5883 37.4674C15.4203 37.2114 16.0923 36.8914 16.6043 36.5074C16.9563 36.2834 17.3403 36.1714 17.7563 36.1714C18.3003 36.1714 18.7323 36.3634 19.0523 36.7474C19.4043 37.0994 19.5803 37.5474 19.5803 38.0914C19.5803 38.7954 19.2603 39.4034 18.6203 39.9154ZM24.0221 41.5474C23.4141 41.5474 22.9021 41.3714 22.4861 41.0194C22.0701 40.6674 21.8621 40.2194 21.8621 39.6754V28.9234C21.8621 28.4114 22.0541 27.9794 22.4381 27.6274C22.8541 27.2434 23.3821 27.0514 24.0221 27.0514C24.5981 27.0514 25.0621 27.2274 25.4141 27.5794C25.7981 27.8994 26.0221 28.2994 26.0861 28.7794C26.4381 28.2354 26.9181 27.7714 27.5261 27.3874C28.1341 27.0034 28.7741 26.8114 29.4461 26.8114C29.8621 26.8114 30.2621 26.8594 30.6461 26.9554C31.0941 27.0834 31.4621 27.3394 31.7501 27.7234C32.0381 28.0754 32.1821 28.4914 32.1821 28.9714C32.1821 29.6434 31.9581 30.2034 31.5101 30.6514C31.0941 31.0674 30.5981 31.2114 30.0221 31.0834C29.6061 30.9874 29.1901 30.9394 28.7741 30.9394C28.0381 30.9394 27.4301 31.1954 26.9501 31.7074C26.4701 32.2194 26.1821 33.2594 26.0861 34.8274V39.6274C26.0861 40.1714 25.8781 40.6354 25.4621 41.0194C25.0781 41.3714 24.5981 41.5474 24.0221 41.5474ZM40.0301 41.6914C37.8541 41.6914 36.0141 41.0514 34.5101 39.7714C33.0381 38.4594 32.3021 36.6674 32.3021 34.3954C32.3021 32.0274 33.0221 30.1714 34.4621 28.8274C35.9341 27.4834 37.7741 26.8114 39.9821 26.8114C41.5501 26.8114 42.8461 27.0994 43.8701 27.6754C44.8941 28.2514 45.6621 28.9874 46.1741 29.8834C46.6861 30.7794 46.9421 31.7234 46.9421 32.7154C46.9421 34.3794 46.2061 35.2114 44.7341 35.2114H36.7661C36.5101 35.2114 36.3821 35.3714 36.3821 35.6914C36.3821 36.4274 36.7821 37.0194 37.5821 37.4674C38.4141 37.8834 39.3421 38.0914 40.3661 38.0914C41.0061 38.0914 41.6461 38.0114 42.2861 37.8514C42.9261 37.6594 43.4861 37.3874 43.9661 37.0354C44.2861 36.8114 44.6221 36.6994 44.9741 36.6994C45.4541 36.6994 45.8541 36.8754 46.1741 37.2274C46.5261 37.5794 46.7021 37.9954 46.7021 38.4754C46.7021 39.0514 46.3981 39.5954 45.7901 40.1074C45.2141 40.5874 44.3661 40.9714 43.2461 41.2594C42.1581 41.5474 41.0861 41.6914 40.0301 41.6914ZM42.5261 32.4274C42.5901 32.4274 42.6701 32.4114 42.7661 32.3794C42.8941 32.3474 42.9581 32.2354 42.9581 32.0434C42.9581 31.5634 42.6541 31.1314 42.0461 30.7474C41.4701 30.3314 40.7181 30.1234 39.7901 30.1234C38.7981 30.1234 37.9821 30.3474 37.3421 30.7954C36.7341 31.2114 36.4301 31.6434 36.4301 32.0914C36.4301 32.3154 36.5581 32.4274 36.8141 32.4274H42.5261ZM53.385 41.6914C52.777 41.6914 52.217 41.5154 51.705 41.1634C51.225 40.8114 50.905 40.2834 50.745 39.5794L47.865 29.4994C47.833 29.3714 47.801 29.2594 47.769 29.1634C47.769 29.0674 47.769 28.9714 47.769 28.8754C47.769 28.2994 47.977 27.8194 48.393 27.4354C48.809 27.0194 49.321 26.8114 49.929 26.8114C50.985 26.8114 51.625 27.2914 51.849 28.2514L53.337 35.3074C53.433 35.6594 53.577 35.8354 53.769 35.8354C53.993 35.8354 54.153 35.6754 54.249 35.3554L56.313 29.2594C56.505 28.7154 56.809 28.3154 57.225 28.0594C57.641 27.8034 58.073 27.6754 58.521 27.6754C58.969 27.6754 59.401 27.8034 59.817 28.0594C60.265 28.3154 60.553 28.7154 60.681 29.2594L62.697 35.3554C62.793 35.6754 62.937 35.8354 63.129 35.8354C63.321 35.8354 63.465 35.6594 63.561 35.3074L65.049 28.2514C65.273 27.2914 65.913 26.8114 66.969 26.8114C67.577 26.8114 68.089 27.0194 68.505 27.4354C68.921 27.8194 69.129 28.2994 69.129 28.8754C69.129 28.9714 69.113 29.0674 69.081 29.1634C69.081 29.2594 69.065 29.3714 69.033 29.4994L66.153 39.5794C65.961 40.2834 65.609 40.8114 65.097 41.1634C64.617 41.5154 64.073 41.6914 63.465 41.6914C62.921 41.6914 62.409 41.5314 61.929 41.2114C61.449 40.8594 61.081 40.3314 60.825 39.6274L58.905 33.9634C58.809 33.6114 58.665 33.4354 58.473 33.4354C58.249 33.4354 58.089 33.6114 57.993 33.9634L56.073 39.6274C55.849 40.3314 55.481 40.8594 54.969 41.2114C54.489 41.5314 53.961 41.6914 53.385 41.6914ZM75.0975 41.6914C74.4895 41.6914 73.9295 41.5154 73.4175 41.1634C72.9375 40.8114 72.6175 40.2834 72.4575 39.5794L69.5775 29.4994C69.5455 29.3714 69.5135 29.2594 69.4815 29.1634C69.4815 29.0674 69.4815 28.9714 69.4815 28.8754C69.4815 28.2994 69.6895 27.8194 70.1055 27.4354C70.5215 27.0194 71.0335 26.8114 71.6415 26.8114C72.6975 26.8114 73.3375 27.2914 73.5615 28.2514L75.0495 35.3074C75.1455 35.6594 75.2895 35.8354 75.4815 35.8354C75.7055 35.8354 75.8655 35.6754 75.9615 35.3554L78.0255 29.2594C78.2175 28.7154 78.5215 28.3154 78.9375 28.0594C79.3535 27.8034 79.7855 27.6754 80.2335 27.6754C80.6815 27.6754 81.1135 27.8034 81.5295 28.0594C81.9775 28.3154 82.2655 28.7154 82.3935 29.2594L84.4095 35.3554C84.5055 35.6754 84.6495 35.8354 84.8415 35.8354C85.0335 35.8354 85.1775 35.6594 85.2735 35.3074L86.7615 28.2514C86.9855 27.2914 87.6255 26.8114 88.6815 26.8114C89.2895 26.8114 89.8015 27.0194 90.2175 27.4354C90.6335 27.8194 90.8415 28.2994 90.8415 28.8754C90.8415 28.9714 90.8255 29.0674 90.7935 29.1634C90.7935 29.2594 90.7775 29.3714 90.7455 29.4994L87.8655 39.5794C87.6735 40.2834 87.3215 40.8114 86.8095 41.1634C86.3295 41.5154 85.7855 41.6914 85.1775 41.6914C84.6335 41.6914 84.1215 41.5314 83.6415 41.2114C83.1615 40.8594 82.7935 40.3314 82.5375 39.6274L80.6175 33.9634C80.5215 33.6114 80.3775 33.4354 80.1855 33.4354C79.9615 33.4354 79.8015 33.6114 79.7055 33.9634L77.7855 39.6274C77.5615 40.3314 77.1935 40.8594 76.6815 41.2114C76.2015 41.5314 75.6735 41.6914 75.0975 41.6914ZM98.874 41.6914C96.73 41.6914 94.986 41.0194 93.642 39.6754C92.33 38.2994 91.674 36.4754 91.674 34.2034C91.674 31.9314 92.314 30.1394 93.594 28.8274C94.906 27.4834 96.618 26.8114 98.73 26.8114C100.234 26.8114 101.546 27.3394 102.666 28.3954C102.794 28.0114 103.034 27.6914 103.386 27.4354C103.738 27.1794 104.154 27.0514 104.634 27.0514C105.274 27.0514 105.786 27.2434 106.17 27.6274C106.586 27.9794 106.794 28.4114 106.794 28.9234V39.8194C106.794 40.3634 106.586 40.8114 106.17 41.1634C105.786 41.5154 105.274 41.6914 104.634 41.6914C103.578 41.6914 102.922 41.2274 102.666 40.2994C101.642 41.2274 100.378 41.6914 98.874 41.6914ZM99.21 37.8034C100.234 37.8034 101.05 37.4674 101.658 36.7954C102.266 36.0914 102.57 35.2274 102.57 34.2034C102.57 33.1474 102.266 32.2994 101.658 31.6594C101.05 31.0194 100.234 30.6994 99.21 30.6994C98.218 30.6994 97.402 31.0194 96.762 31.6594C96.154 32.2994 95.85 33.1474 95.85 34.2034C95.85 35.2274 96.154 36.0914 96.762 36.7954C97.402 37.4674 98.218 37.8034 99.21 37.8034Z" fill="#0A0C2C"/>
<path d="M121.945 31.9771H117.539V33.3862H121.627V34.186H117.539V35.6841H117.901C119.044 35.6841 119.977 35.6629 120.7 35.6206C121.424 35.5783 122.148 35.4937 122.871 35.3667L122.973 36.1792C122.237 36.3062 121.502 36.3908 120.77 36.4331C120.038 36.4754 119.084 36.4966 117.907 36.4966H117.45H116.536V31.1519H121.945V31.9771ZM117.857 37.7534H125.195V41.5874H117.857V37.7534ZM124.217 40.7749V38.5532H118.834V40.7749H124.217ZM124.204 30.4663H125.195V37.1948H124.204V30.4663Z" fill="#575A7A"/>
<path d="M135.617 36.3569H134.64V30.4536H135.617V36.3569ZM126.908 30.9106H127.898V32.5737H131.225V30.9106H132.215V35.8491H126.908V30.9106ZM131.225 35.0493V33.3481H127.898V35.0493H131.225ZM128.292 36.9409H135.63V39.5942H129.295V40.813H136.036V41.6128H128.317V38.8579H134.64V37.728H128.292V36.9409Z" fill="#575A7A"/>
<path d="M146.065 37.4106H145.075V30.4536H146.065V37.4106ZM137.445 31.3423H142.79V32.1675H138.435V35.4683C139.713 35.4683 140.748 35.4408 141.539 35.3857C142.335 35.3307 143.124 35.2228 143.907 35.062L144.021 35.8999C143.209 36.0522 142.396 36.1559 141.584 36.2109C140.776 36.2617 139.705 36.2892 138.372 36.2935H137.445V31.3423ZM138.486 39.5688C138.486 39.1203 138.638 38.7352 138.943 38.4136C139.248 38.092 139.686 37.8444 140.257 37.6709C140.828 37.4974 141.508 37.4106 142.295 37.4106C143.073 37.4106 143.746 37.4974 144.313 37.6709C144.885 37.8444 145.325 38.092 145.634 38.4136C145.943 38.7352 146.099 39.1203 146.103 39.5688C146.099 40.0174 145.943 40.4046 145.634 40.7305C145.329 41.0563 144.891 41.3039 144.32 41.4731C143.748 41.6466 143.073 41.7355 142.295 41.7397C141.508 41.7355 140.828 41.6466 140.257 41.4731C139.686 41.3039 139.248 41.0563 138.943 40.7305C138.638 40.4046 138.486 40.0174 138.486 39.5688ZM139.489 39.5688C139.489 39.8481 139.601 40.0915 139.825 40.2988C140.05 40.502 140.371 40.6564 140.79 40.7622C141.214 40.8722 141.715 40.9272 142.295 40.9272C142.874 40.9272 143.376 40.8722 143.799 40.7622C144.222 40.6522 144.546 40.4956 144.77 40.2925C144.999 40.0894 145.113 39.8481 145.113 39.5688C145.113 39.2896 144.999 39.0483 144.77 38.8452C144.546 38.6421 144.222 38.4855 143.799 38.3755C143.376 38.2655 142.874 38.2104 142.295 38.2104C141.715 38.2104 141.214 38.2655 140.79 38.3755C140.371 38.4855 140.05 38.6421 139.825 38.8452C139.601 39.0483 139.489 39.2896 139.489 39.5688Z" fill="#575A7A"/>
<path d="M150.877 31.2788C151.461 31.2788 151.981 31.391 152.438 31.6152C152.899 31.8395 153.259 32.1527 153.517 32.5547C153.78 32.9567 153.911 33.4159 153.911 33.9321C153.911 34.4484 153.78 34.9076 153.517 35.3096C153.259 35.7116 152.899 36.0247 152.438 36.249C151.981 36.4733 151.461 36.5854 150.877 36.5854C150.288 36.5854 149.761 36.4733 149.296 36.249C148.835 36.0247 148.475 35.7116 148.217 35.3096C147.959 34.9076 147.83 34.4484 147.83 33.9321C147.83 33.4159 147.959 32.9567 148.217 32.5547C148.475 32.1527 148.835 31.8395 149.296 31.6152C149.761 31.391 150.288 31.2788 150.877 31.2788ZM147.773 38.4263C149.055 38.4263 150.271 38.4009 151.422 38.3501C152.578 38.2993 153.67 38.1978 154.698 38.0454L154.774 38.7817C153.636 38.9933 152.478 39.1287 151.302 39.188C150.125 39.2472 148.82 39.2769 147.385 39.2769L147.246 38.4263H147.773ZM148.807 33.9321C148.807 34.2791 148.894 34.5881 149.067 34.8589C149.245 35.1255 149.491 35.335 149.804 35.4873C150.121 35.6354 150.479 35.7095 150.877 35.7095C151.27 35.7095 151.623 35.6354 151.937 35.4873C152.25 35.335 152.493 35.1255 152.667 34.8589C152.844 34.5881 152.933 34.2791 152.933 33.9321C152.933 33.5894 152.844 33.2826 152.667 33.0117C152.493 32.7409 152.25 32.5314 151.937 32.3833C151.623 32.231 151.27 32.1548 150.877 32.1548C150.479 32.1548 150.121 32.231 149.804 32.3833C149.491 32.5314 149.245 32.7409 149.067 33.0117C148.894 33.2826 148.807 33.5894 148.807 33.9321ZM155.447 30.4536H156.437V41.7651H155.447V30.4536Z" fill="#575A7A"/>
<path d="M164.092 33.4878C164.092 34.1564 164.23 34.8208 164.505 35.481C164.78 36.1369 165.15 36.7209 165.615 37.2329C166.085 37.745 166.597 38.1258 167.152 38.3755L166.542 39.1626C165.895 38.8494 165.311 38.3776 164.79 37.7471C164.27 37.1123 163.874 36.395 163.603 35.5952C163.345 36.4458 162.954 37.2075 162.429 37.8804C161.904 38.5532 161.312 39.0568 160.652 39.3911L160.017 38.5532C160.575 38.2993 161.09 37.9079 161.559 37.3789C162.029 36.8499 162.401 36.2448 162.676 35.5635C162.956 34.8779 163.098 34.186 163.102 33.4878V31.4312H164.092V33.4878ZM168.383 30.4536H169.386V41.7651H168.383V30.4536Z" fill="#575A7A"/>
<path d="M174.337 32.5483C174.337 33.0435 174.453 33.5195 174.686 33.9766C174.919 34.4336 175.245 34.8377 175.664 35.189C176.083 35.5402 176.567 35.811 177.117 36.0015L176.609 36.7759C175.966 36.5474 175.405 36.2131 174.927 35.7729C174.453 35.3328 174.096 34.8187 173.854 34.2305C173.613 34.8695 173.245 35.4302 172.75 35.9126C172.255 36.3908 171.675 36.7505 171.011 36.9917L170.478 36.2173C171.036 36.0184 171.533 35.7349 171.969 35.3667C172.405 34.9943 172.744 34.5648 172.985 34.0781C173.23 33.5915 173.355 33.0815 173.359 32.5483V32.0659H170.782V31.2534H176.876V32.0659H174.337V32.5483ZM171.95 37.855H179.339V41.7397H178.349V38.6675H171.95V37.855ZM178.349 30.4536H179.339V33.437H181.04V34.2876H179.339V37.2583H178.349V30.4536Z" fill="#575A7A"/>
<path d="M182.69 38.1216H181.624L181.535 31.52H182.779L182.69 38.1216ZM181.345 39.9624C181.34 39.8185 181.374 39.6852 181.446 39.5625C181.522 39.4355 181.622 39.3361 181.744 39.2642C181.871 39.188 182.009 39.1499 182.157 39.1499C182.301 39.1499 182.434 39.1859 182.557 39.2578C182.684 39.3298 182.783 39.4271 182.855 39.5498C182.931 39.6725 182.97 39.8058 182.97 39.9497C182.97 40.1782 182.891 40.375 182.735 40.54C182.578 40.7008 182.386 40.7834 182.157 40.7876C182.009 40.7876 181.871 40.7495 181.744 40.6733C181.622 40.5972 181.522 40.4977 181.446 40.375C181.374 40.248 181.34 40.1105 181.345 39.9624Z" fill="#575A7A"/>
</svg>
